<svg width="40" height="38" viewBox="0 0 40 38" fill="none" xmlns="http://www.w3.org/2000/svg">
<path d="M19.9768 9.64824C14.5118 9.64824 10.0846 13.8601 10.0846 19.0547C10.0846 24.2514 14.5118 28.4633 19.9768 28.4633C25.4375 28.4633 29.869 24.2514 29.869 19.0547C29.869 13.8601 25.4375 9.64824 19.9768 9.64824ZM19.9768 25.167C16.4269 25.167 13.5489 22.4303 13.5489 19.0568C13.5489 15.6812 16.4269 12.9465 19.9768 12.9465C23.5267 12.9465 26.4004 15.6812 26.4004 19.0568C26.4004 22.4303 23.5267 25.167 19.9768 25.167Z" fill="#1C1C1C" fill-opacity="0.9"/>
<path d="M30.2627 11.4958C31.5367 11.4958 32.5694 10.5137 32.5694 9.30233C32.5694 8.09094 31.5367 7.10891 30.2627 7.10891C28.9888 7.10891 27.956 8.09094 27.956 9.30233C27.956 10.5137 28.9888 11.4958 30.2627 11.4958Z" fill="#1C1C1C" fill-opacity="0.9"/>
<path d="M38.2377 7.07228C37.2341 4.6123 35.1906 2.66711 32.6036 1.7169C31.1079 1.18177 29.5266 0.894872 27.9261 0.862316C25.8655 0.776858 25.2128 0.752441 19.9875 0.752441C14.7622 0.752441 14.0924 0.752441 12.0489 0.862316C10.4527 0.892837 8.87135 1.17973 7.37565 1.7169C4.78652 2.66711 2.74303 4.6123 1.74161 7.07228C1.17885 8.49658 0.877144 9.99821 0.845047 11.5202C0.753037 13.4776 0.72522 14.0982 0.72522 19.069C0.72522 24.0378 0.72522 24.6706 0.845047 26.6178C0.877144 28.1398 1.17885 29.6414 1.74161 31.0677C2.74517 33.5257 4.78866 35.4709 7.37779 36.4231C8.86707 36.9766 10.4484 37.2899 12.0532 37.3387C14.1138 37.4242 14.7664 37.4506 19.9918 37.4506C25.2171 37.4506 25.8869 37.4506 27.9304 37.3387C29.5288 37.3082 31.1101 37.0193 32.6079 36.4862C35.1949 35.5319 37.2384 33.5887 38.2419 31.1288C38.8047 29.7045 39.1064 28.2028 39.1385 26.6809C39.2305 24.7235 39.2583 24.1029 39.2583 19.1321C39.2583 14.1612 39.2583 13.5305 39.1385 11.5833C39.1107 10.0409 38.8111 8.51286 38.2377 7.07228ZM35.6314 26.4672C35.6164 27.6392 35.3939 28.8011 34.9659 29.9018C34.3133 31.5032 32.9845 32.7688 31.3026 33.3832C30.1579 33.7881 28.951 33.9998 27.7292 34.016C25.6964 34.1056 25.123 34.1279 19.9105 34.1279C14.6937 34.1279 14.1609 34.1279 12.0896 34.016C10.872 34.0018 9.66093 33.7881 8.51829 33.3832C6.83001 32.7708 5.49265 31.5052 4.84001 29.9018C4.42062 28.8153 4.1938 27.6657 4.17454 26.5059C4.08253 24.5729 4.06113 24.0276 4.06113 19.071C4.06113 14.1124 4.06113 13.6058 4.17454 11.6341C4.18952 10.4621 4.41206 9.30233 4.84001 8.20155C5.49265 6.59616 6.83001 5.3326 8.51829 4.71811C9.66093 4.31524 10.872 4.10159 12.0896 4.08531C14.1245 3.99782 14.6958 3.9734 19.9105 3.9734C25.1251 3.9734 25.6601 3.9734 27.7292 4.08531C28.951 4.09956 30.1579 4.3132 31.3026 4.71811C32.9845 5.33463 34.3133 6.60023 34.9659 8.20155C35.3853 9.28809 35.6122 10.4377 35.6314 11.5975C35.7234 13.5325 35.747 14.0758 35.747 19.0344C35.747 23.991 35.747 24.5241 35.655 26.4693H35.6314V26.4672Z" fill="#1C1C1C" fill-opacity="0.9"/>
</svg>
