<svg width="18" height="18" viewBox="0 0 18 18" fill="none" xmlns="http://www.w3.org/2000/svg">
<path d="M9.65698 12.5713L11.1141 14.0284L8.92842 16.2141C6.91655 18.226 3.65467 18.226 1.64281 16.2141C-0.36906 14.2022 -0.36906 10.9403 1.64281 8.92848L3.82849 6.7428L5.28561 8.19992L3.09993 10.3856C1.89281 11.5927 1.89281 13.5499 3.09993 14.757C4.30705 15.9641 6.26418 15.9641 7.4713 14.757L9.65698 12.5713Z" fill="#1C1C1C"/>
<path d="M8.19986 5.28568L6.74274 3.82855L8.92842 1.64287C10.9403 -0.368998 14.2022 -0.368998 16.214 1.64287C18.2259 3.65474 18.2259 6.91662 16.214 8.92848L14.0283 11.1142L12.5712 9.65704L14.7569 7.47136C15.964 6.26424 15.964 4.30711 14.7569 3.09999C13.5498 1.89287 11.5927 1.89287 10.3855 3.09999L8.19986 5.28568Z" fill="#1C1C1C"/>
<path d="M11.8427 4.55711L4.55705 11.8427L6.01417 13.2999L13.2998 6.01424L11.8427 4.55711Z" fill="#1C1C1C"/>
</svg>
