<svg width="45" height="36" viewBox="0 0 45 36" fill="none" xmlns="http://www.w3.org/2000/svg">
<path d="M44.9553 4.71432C43.3014 5.41435 41.5237 5.88745 39.6583 6.10017C41.5621 5.01092 43.0248 3.28615 43.7134 1.23086C41.9311 2.23956 39.9574 2.97197 37.8565 3.36658C36.1742 1.65607 33.7773 0.587364 31.1245 0.587364C26.031 0.587364 21.9011 4.52788 21.9011 9.3884C21.9011 10.0782 21.9827 10.7499 22.1401 11.3942C14.4747 11.0271 7.67861 7.52317 3.12974 2.19827C2.33579 3.49814 1.88096 5.01 1.88096 6.623C1.88096 9.67651 3.50916 12.3704 5.98402 13.9488C4.47227 13.9029 3.04995 13.5071 1.80656 12.8479C1.80568 12.8847 1.80568 12.9214 1.80568 12.9585C1.80568 17.2229 4.98491 20.78 9.20411 21.5886C8.43023 21.7898 7.61541 21.8975 6.77426 21.8975C6.17995 21.8975 5.60217 21.8421 5.03892 21.7395C6.21264 25.2359 9.61875 27.7807 13.6547 27.8515C10.4982 30.2124 6.52138 31.6194 2.20014 31.6194C1.45568 31.6194 0.721531 31.5776 0 31.4961C4.08166 33.9934 8.92972 35.4507 14.1382 35.4507C31.1028 35.4507 40.3799 22.0396 40.3799 10.4089C40.3799 10.0274 40.3709 9.64782 40.3531 9.27027C42.1553 8.02937 43.7189 6.4793 44.9553 4.71432Z" fill="#1C1C1C" fill-opacity="0.9"/>
</svg>
