<svg width="39" height="39" viewBox="0 0 39 39" fill="none" xmlns="http://www.w3.org/2000/svg">
<path fill-rule="evenodd" clip-rule="evenodd" d="M33.3176 5.66836C31.5187 3.86622 29.3784 2.43727 27.0206 1.46428C24.6629 0.491289 22.1345 -0.00639429 19.5822 6.202e-05C8.87935 6.202e-05 0.166555 8.66935 0.162229 19.3257C0.162229 22.7314 1.05557 26.0553 2.75357 28.9874L0 39L10.294 36.3112C13.1414 37.8538 16.3315 38.6628 19.5735 38.6642H19.5822C30.2828 38.6642 38.9956 29.9949 38.9999 19.3386C39.0073 16.7993 38.5089 14.2838 37.5335 11.9374C36.5582 9.59102 35.1253 7.46028 33.3176 5.66836ZM19.5822 35.4027H19.5757C16.6848 35.403 13.8471 34.6289 11.3604 33.1616L10.772 32.8129L4.66355 34.4081L6.29233 28.4815L5.90947 27.8744C4.29321 25.3135 3.4376 22.3499 3.44142 19.3257C3.44575 10.4691 10.6855 3.26369 19.5886 3.26369C21.709 3.259 23.8092 3.6729 25.7677 4.48142C27.7263 5.28994 29.5043 6.47704 30.9988 7.974C32.5013 9.46382 33.6922 11.2352 34.5027 13.1859C35.3132 15.1365 35.7272 17.2277 35.7207 19.3386C35.7164 28.1951 28.4766 35.4027 19.5822 35.4027ZM28.4355 23.3707C27.9489 23.1275 25.5652 21.9607 25.1196 21.7992C24.6762 21.6378 24.3539 21.5581 24.0294 22.0403C23.7049 22.5225 22.7748 23.6097 22.4915 23.9326C22.2081 24.2555 21.9247 24.2943 21.4402 24.0532C20.9557 23.8121 19.3918 23.3019 17.5381 21.6571C16.0953 20.3762 15.1219 18.7961 14.8386 18.3117C14.5552 17.8273 14.8083 17.5668 15.0527 17.3257C15.2712 17.1104 15.5372 16.7617 15.7795 16.4797C16.0218 16.1977 16.1018 15.9974 16.264 15.6745C16.4263 15.3516 16.3462 15.0696 16.2229 14.8285C16.1018 14.5852 15.1306 12.2085 14.7261 11.2419C14.3346 10.3055 13.9344 10.4303 13.6359 10.4174C13.3268 10.4048 13.0174 10.3991 12.708 10.4002C12.4619 10.4064 12.2198 10.4632 11.9969 10.5669C11.7739 10.6706 11.5749 10.8191 11.4123 11.003C10.9667 11.4873 9.71429 12.6542 9.71429 15.0308C9.71429 17.4075 11.4534 19.7045 11.6956 20.0275C11.9379 20.3504 15.1176 25.2265 19.9845 27.319C21.1439 27.8163 22.048 28.1133 22.751 28.3372C23.9126 28.7054 24.9703 28.6515 25.8074 28.5288C26.7397 28.3911 28.6778 27.362 29.0823 26.234C29.4868 25.1059 29.4868 24.1393 29.3657 23.9369C29.2445 23.7346 28.9179 23.6119 28.4355 23.3707Z" fill="#2F2F2F"/>
</svg>
